<?xml version="1.0" encoding="UTF-8"?><svg id="Ebene_1" xmlns="http://www.w3.org/2000/svg" viewBox="0 0 134.96 46.44"><defs><style>.cls-1{fill:#010101;}</style></defs><path class="cls-1" d="M6.21,35.09v11.35h-.95v-11.35h.95Z"/><path class="cls-1" d="M18.23,40.36l4.66-5.27h.96v11.35h-.96v-10.07l-4.67,5.31-4.69-5.31v10.07h-.95v-11.35h.95l4.69,5.27Z"/><path class="cls-1" d="M35.88,40.36l4.66-5.27h.96v11.35h-.96v-10.07l-4.67,5.31-4.69-5.31v10.07h-.95v-11.35h.95l4.69,5.27Z"/><path class="cls-1" d="M53.9,34.94c1.82,0,3.36.56,4.62,1.69,1.26,1.13,1.89,2.51,1.89,4.13s-.63,3-1.89,4.12c-1.26,1.13-2.8,1.69-4.62,1.69s-3.34-.56-4.6-1.69c-1.26-1.13-1.88-2.5-1.88-4.12s.63-3,1.88-4.13c1.26-1.13,2.79-1.69,4.6-1.69ZM53.94,45.77c1.53,0,2.82-.48,3.87-1.45s1.58-2.15,1.58-3.56-.53-2.6-1.58-3.56-2.34-1.45-3.87-1.45-2.83.48-3.9,1.45c-1.06.97-1.59,2.15-1.59,3.56s.53,2.59,1.59,3.56c1.06.97,2.36,1.45,3.9,1.45Z"/><path class="cls-1" d="M66.36,35.09h2.56c1.34,0,2.36.26,3.05.78s1.04,1.24,1.04,2.15c0,1.09-.59,1.94-1.77,2.53,1.89.38,2.84,1.34,2.84,2.88,0,.92-.37,1.65-1.11,2.2-.74.54-1.75.82-3.01.82h-3.59v-11.35ZM67.31,35.82v4.53h1.32c2.23,0,3.35-.75,3.35-2.26s-1.13-2.27-3.38-2.27h-1.28ZM67.31,41.08v4.62h2.54c1.05,0,1.85-.21,2.39-.63s.82-.98.82-1.67c0-1.55-1.21-2.32-3.62-2.32h-2.13Z"/><path class="cls-1" d="M80.43,35.09v11.35h-.95v-11.35h.95Z"/><path class="cls-1" d="M87.79,35.09v10.62h6.07v.73h-7.02v-11.35h.95Z"/><path class="cls-1" d="M99.82,35.09v11.35h-.95v-11.35h.95Z"/><path class="cls-1" d="M112.95,35.09v.73h-5.75v4.54h5.6v.74h-5.6v4.61h5.89v.73h-6.84v-11.35h6.7Z"/><path class="cls-1" d="M129.71,35.09v11.35h-.78l-9.33-9.92v9.92h-.95v-11.35h.8l9.31,9.92v-9.92h.95Z"/><path class="cls-1" d="M18.65,2.2v.58c-.97.23-1.73,1.07-2.29,2.52l-6.81,17.57h-.46L2,4.64c-.46-1.2-1.13-1.82-2-1.86v-.58c.77.06,1.81.09,3.1.09,1.66,0,2.9-.03,3.71-.09v.58c-.73.04-1.26.13-1.58.28-.32.14-.48.41-.48.8,0,.33.12.78.35,1.36l5.25,13.95,4.73-12.27c.39-1.04.58-1.84.58-2.38,0-.6-.21-1.03-.62-1.31-.42-.27-1.05-.42-1.9-.44v-.58c1.1.06,2.21.09,3.33.09.87,0,1.6-.03,2.18-.09Z"/><path class="cls-1" d="M18.69,22.03c-.59-.61-.88-1.45-.88-2.54,0-.87.24-1.58.71-2.15.47-.56,1.03-1,1.68-1.33.65-.33,1.5-.68,2.57-1.04,1.08-.37,1.89-.71,2.41-1.02.52-.31.78-.73.78-1.25v-1.8c0-1.12-.24-1.89-.71-2.31-.47-.42-1.14-.62-1.99-.62-1.35,0-2.31.35-2.87,1.04.39.1.71.3.97.61.26.31.39.7.39,1.16s-.16.87-.46,1.15c-.31.28-.71.42-1.19.42-.54,0-.95-.17-1.22-.51-.27-.34-.41-.75-.41-1.23s.11-.85.33-1.16c.22-.31.56-.62,1-.93.46-.33,1.05-.6,1.77-.81.72-.21,1.5-.32,2.35-.32,1.51,0,2.65.36,3.42,1.07.48.44.81.98.97,1.61.16.63.25,1.46.25,2.48v8.06c0,.48.07.83.2,1.04.14.21.37.32.7.32.23,0,.45-.05.65-.16.2-.11.42-.26.65-.45l.32.49c-.5.39-.93.66-1.29.83-.36.16-.81.25-1.35.25-.93,0-1.58-.23-1.94-.7-.37-.46-.55-1.09-.55-1.88-.58.97-1.25,1.64-2,2.02-.75.38-1.6.57-2.55.57-1.22,0-2.12-.3-2.71-.91ZM25.95,19.57v-5.68c-.17.27-.42.49-.72.67-.31.17-.78.41-1.42.7-.73.31-1.33.6-1.78.88-.45.28-.85.66-1.17,1.15-.33.48-.49,1.1-.49,1.86,0,.87.21,1.53.64,1.97.43.44.99.67,1.68.67,1.28,0,2.37-.73,3.28-2.2Z"/><path class="cls-1" d="M44.78,8.5c.37.39.63.87.78,1.45s.23,1.36.23,2.35v7.74c0,.79.16,1.34.49,1.64.33.3.9.45,1.71.45v.61c-1.78-.08-2.94-.12-3.48-.12s-1.62.04-3.25.12v-.61c.72,0,1.21-.15,1.49-.45.28-.3.42-.85.42-1.64v-8.38c0-1.08-.15-1.91-.46-2.48-.31-.57-.94-.86-1.89-.86-.79,0-1.5.23-2.12.7-.62.46-1.1,1.1-1.44,1.9-.34.8-.51,1.7-.51,2.68v6.44c0,.79.14,1.34.42,1.64.28.3.78.45,1.49.45v.61c-1.62-.08-2.71-.12-3.25-.12s-1.7.04-3.48.12v-.61c.81,0,1.38-.15,1.71-.45.33-.3.49-.85.49-1.64v-9.08c0-.89-.16-1.54-.49-1.94-.33-.41-.9-.61-1.71-.61v-.61c.62.06,1.22.09,1.8.09,1.22,0,2.22-.13,3.02-.41v3.42c.48-1.24,1.16-2.13,2.02-2.68.86-.55,1.83-.83,2.91-.83,1.35,0,2.38.37,3.07,1.1Z"/><path class="cls-1" d="M62.96,21.52c.33.41.9.61,1.71.61v.61c-.6-.06-1.2-.09-1.8-.09-1.22,0-2.22.13-3.02.41v-2.58c-.35.87-.87,1.53-1.57,1.99-.7.45-1.55.68-2.55.68-1.86,0-3.31-.67-4.36-2s-1.57-3.29-1.55-5.86c0-1.68.29-3.12.88-4.31.59-1.19,1.38-2.08,2.38-2.68,1-.6,2.09-.9,3.29-.9.73,0,1.41.14,2.02.42.61.28,1.1.71,1.46,1.29V3.48c0-.89-.16-1.54-.49-1.94-.33-.41-.9-.61-1.71-.61V.32c.62.06,1.22.09,1.8.09,1.22,0,2.22-.13,3.02-.41v19.57c0,.89.16,1.54.49,1.94ZM58.61,21.4c.6-.58,1.02-1.4,1.25-2.46v-8.64c-.52-1.49-1.6-2.23-3.25-2.23-1.2,0-2.17.61-2.9,1.84-.74,1.23-1.09,3.02-1.07,5.38-.02,2.32.31,4.06.99,5.23.68,1.17,1.66,1.75,2.96,1.75.75,0,1.43-.29,2.03-.87Z"/><path class="cls-1" d="M78.7,19.26c-.35,1.06-1,1.98-1.96,2.74-.96.76-2.11,1.15-3.47,1.15s-2.56-.31-3.57-.94c-1-.63-1.77-1.51-2.3-2.64-.53-1.13-.8-2.44-.8-3.93,0-1.68.27-3.14.81-4.38.54-1.24,1.3-2.19,2.29-2.86.99-.67,2.14-1,3.45-1,1.74,0,3.08.53,4.02,1.58.94,1.05,1.41,2.65,1.41,4.8h-9.08c-.06.54-.09,1.16-.09,1.86,0,1.28.21,2.39.62,3.33.42.95.97,1.68,1.65,2.19.69.51,1.41.77,2.16.77.93,0,1.75-.22,2.46-.67.71-.44,1.31-1.19,1.8-2.23l.58.23ZM70.7,9.28c-.66.89-1.06,2.2-1.22,3.94h6.32c.04-1.51-.18-2.76-.65-3.77-.47-1-1.17-1.51-2.1-1.51s-1.69.44-2.35,1.33Z"/><path class="cls-1" d="M88.36,2.78c-.7.04-1.2.12-1.52.23-.32.12-.54.34-.65.67-.12.33-.17.86-.17,1.6v14.38c0,.74.06,1.27.17,1.6.12.33.33.55.65.65.32.11.83.16,1.52.16h2.12c1.2,0,2.11-.17,2.74-.51.63-.34,1.09-.88,1.38-1.64s.5-1.85.64-3.28h.67c-.06.6-.09,1.39-.09,2.38,0,1.1.07,2.34.2,3.71-1.31-.06-3.53-.09-6.64-.09-3.71,0-6.52.03-8.41.09v-.58c.7-.04,1.2-.12,1.52-.23.32-.12.54-.34.65-.67.12-.33.17-.86.17-1.6V5.28c0-.73-.06-1.27-.17-1.6-.12-.33-.33-.55-.65-.67-.32-.12-.83-.19-1.52-.23v-.58c.81.06,2.05.09,3.71.09,1.55,0,2.77-.03,3.68-.09v.58Z"/><path class="cls-1" d="M110.23,19.26c-.35,1.06-1,1.98-1.96,2.74-.96.76-2.11,1.15-3.47,1.15s-2.56-.31-3.57-.94c-1-.63-1.77-1.51-2.3-2.64-.53-1.13-.8-2.44-.8-3.93,0-1.68.27-3.14.81-4.38.54-1.24,1.3-2.19,2.29-2.86.99-.67,2.14-1,3.45-1,1.74,0,3.08.53,4.02,1.58.94,1.05,1.41,2.65,1.41,4.8h-9.08c-.06.54-.09,1.16-.09,1.86,0,1.28.21,2.39.62,3.33.42.95.97,1.68,1.65,2.19.69.51,1.41.77,2.16.77.93,0,1.75-.22,2.46-.67.71-.44,1.31-1.19,1.8-2.23l.58.23ZM102.22,9.28c-.66.89-1.06,2.2-1.22,3.94h6.32c.04-1.51-.18-2.76-.65-3.77-.47-1-1.17-1.51-2.1-1.51s-1.69.44-2.35,1.33Z"/><path class="cls-1" d="M110.72,27.75c1.18-.06,2.07-.57,2.68-1.54.61-.97.91-2.31.91-4.03v-11.22c0-.89-.16-1.54-.49-1.94-.33-.41-.9-.61-1.71-.61v-.61c.6.06,1.2.09,1.8.09,1.22,0,2.22-.13,3.02-.41v11.92c0,3.21-.7,5.55-2.09,7.02-.52.54-1.14.97-1.84,1.29-.71.32-1.46.48-2.28.48v-.44ZM116.66,1.1c.37.37.55.8.55,1.3s-.18.94-.55,1.31c-.37.37-.8.55-1.31.55s-.94-.18-1.3-.55-.55-.8-.55-1.31.18-.94.55-1.3.8-.55,1.3-.55.94.18,1.31.55Z"/><path class="cls-1" d="M133.92,21.69c.29.23.64.38,1.04.44v.61c-1.16-.08-1.94-.12-2.35-.12-.52,0-1.6.04-3.22.12v-.61c.27,0,.49-.05.65-.16.16-.11.25-.24.25-.39s-.06-.3-.17-.44l-3.33-4.87c-.33-.48-.64-.81-.94-.97-.3-.16-.71-.27-1.23-.3v5.05c0,.79.14,1.34.42,1.64.28.3.78.45,1.49.45v.61c-1.62-.08-2.7-.12-3.22-.12-.56,0-1.73.04-3.51.12v-.61c.81,0,1.38-.15,1.71-.45.33-.3.49-.85.49-1.64V3.48c0-.89-.17-1.54-.49-1.94-.33-.41-.9-.61-1.71-.61V.32c.62.06,1.22.09,1.8.09,1.22,0,2.22-.13,3.02-.41v14.38c.56-.08,1.03-.21,1.41-.39.38-.18.74-.45,1.09-.8l2.15-2.23c.62-.64.93-1.17.93-1.6,0-.33-.2-.57-.59-.74-.4-.16-.91-.25-1.55-.25v-.58c1.35.08,2.45.12,3.28.12.91,0,1.75-.04,2.52-.12v.58c-.95.08-1.82.53-2.61,1.36l-3.54,3.71,5.25,7.16c.37.48.7.84.99,1.07Z"/></svg>