<?xml version="1.0" encoding="UTF-8"?><svg id="Ebene_1" xmlns="http://www.w3.org/2000/svg" viewBox="0 0 500 500"><defs><style>.cls-1{fill:#50535a;}</style></defs><path class="cls-1" d="M57.69,286.51v35.57h-2.97v-35.57h2.97Z"/><path class="cls-1" d="M95.35,303.03l14.61-16.52h3.01v35.57h-3v-31.54l-14.64,16.62-14.69-16.62v31.54h-2.97v-35.57h2.98l14.7,16.52Z"/><path class="cls-1" d="M150.66,303.03l14.61-16.52h3.01v35.57h-3v-31.54l-14.64,16.62-14.69-16.62v31.54h-2.97v-35.57h2.98l14.7,16.52Z"/><path class="cls-1" d="M207.13,286.05c5.69,0,10.51,1.77,14.47,5.31,3.95,3.54,5.93,7.85,5.93,12.95s-1.98,9.38-5.93,12.92c-3.96,3.54-8.78,5.31-14.47,5.31s-10.48-1.77-14.42-5.31c-3.93-3.54-5.91-7.85-5.91-12.92s1.97-9.41,5.91-12.95c3.94-3.54,8.74-5.31,14.42-5.31ZM207.24,319.98c4.79,0,8.83-1.51,12.13-4.54,3.3-3.03,4.94-6.74,4.94-11.14s-1.65-8.13-4.94-11.16c-3.3-3.03-7.34-4.54-12.13-4.54s-8.88,1.51-12.21,4.54c-3.33,3.03-5,6.75-5,11.16s1.67,8.11,5,11.14c3.33,3.03,7.4,4.54,12.21,4.54Z"/><path class="cls-1" d="M246.16,286.51h8.01c4.2,0,7.39.81,9.56,2.44s3.25,3.88,3.25,6.75c0,3.43-1.84,6.07-5.53,7.92,5.93,1.19,8.89,4.19,8.89,9.01,0,2.89-1.16,5.18-3.48,6.89-2.33,1.71-5.47,2.56-9.43,2.56h-11.26v-35.57ZM249.14,288.8v14.18h4.13c6.99,0,10.49-2.36,10.49-7.08s-3.53-7.1-10.6-7.1h-4.02ZM249.14,305.29v14.49h7.96c3.29,0,5.78-.65,7.49-1.96,1.71-1.31,2.56-3.06,2.56-5.24,0-4.85-3.78-7.28-11.35-7.28h-6.66Z"/><path class="cls-1" d="M290.23,286.51v35.57h-2.97v-35.57h2.97Z"/><path class="cls-1" d="M313.3,286.51v33.28h19.03v2.29h-22v-35.57h2.97Z"/><path class="cls-1" d="M350.99,286.51v35.57h-2.97v-35.57h2.97Z"/><path class="cls-1" d="M392.11,286.51v2.29h-18.01v14.23h17.54v2.32h-17.54v14.44h18.45v2.29h-21.42v-35.57h20.98Z"/><path class="cls-1" d="M444.62,286.51v35.57h-2.45l-29.25-31.09v31.09h-2.97v-35.57h2.52l29.17,31.09v-31.09h2.97Z"/><path class="cls-1" d="M96.67,183.48v1.82c-3.03.73-5.42,3.36-7.18,7.9l-21.35,55.06h-1.45l-22.17-57.15c-1.45-3.75-3.54-5.69-6.27-5.81v-1.82c2.42.18,5.66.27,9.72.27,5.21,0,9.09-.09,11.63-.27v1.82c-2.3.12-3.95.41-4.95.86-1,.45-1.5,1.29-1.5,2.5,0,1.03.36,2.45,1.09,4.27l16.45,43.7,14.81-38.43c1.21-3.27,1.82-5.75,1.82-7.45,0-1.88-.65-3.24-1.95-4.09-1.3-.85-3.29-1.3-5.95-1.36v-1.82c3.45.18,6.94.27,10.45.27,2.73,0,5-.09,6.82-.27Z"/><path class="cls-1" d="M96.8,245.59c-1.85-1.91-2.77-4.56-2.77-7.95,0-2.73.74-4.97,2.23-6.72,1.48-1.76,3.24-3.15,5.27-4.18,2.03-1.03,4.71-2.12,8.04-3.27,3.39-1.15,5.91-2.21,7.54-3.18,1.64-.97,2.45-2.27,2.45-3.91v-5.63c0-3.51-.74-5.92-2.23-7.22-1.48-1.3-3.56-1.95-6.22-1.95-4.24,0-7.24,1.09-9,3.27,1.21.3,2.23.94,3.04,1.91.82.97,1.23,2.18,1.23,3.63s-.49,2.71-1.45,3.59c-.97.88-2.21,1.32-3.73,1.32-1.7,0-2.97-.53-3.82-1.59-.85-1.06-1.27-2.35-1.27-3.86s.35-2.66,1.04-3.63c.7-.97,1.74-1.94,3.13-2.91,1.45-1.03,3.3-1.88,5.54-2.54,2.24-.67,4.69-1,7.36-1,4.72,0,8.3,1.12,10.72,3.36,1.51,1.39,2.53,3.07,3.04,5.04.51,1.97.77,4.56.77,7.77v25.26c0,1.52.21,2.61.63,3.27.42.67,1.15,1,2.18,1,.73,0,1.41-.17,2.04-.5.64-.33,1.32-.8,2.05-1.41l1,1.54c-1.58,1.21-2.92,2.08-4.04,2.59-1.12.51-2.53.77-4.23.77-2.91,0-4.94-.73-6.09-2.18-1.15-1.45-1.73-3.42-1.73-5.91-1.82,3.03-3.91,5.13-6.27,6.32-2.36,1.18-5.03,1.77-7.99,1.77-3.82,0-6.65-.95-8.5-2.86ZM119.56,237.91v-17.81c-.54.85-1.3,1.55-2.27,2.09-.97.55-2.45,1.27-4.45,2.18-2.3.97-4.16,1.89-5.59,2.77-1.42.88-2.65,2.08-3.68,3.59-1.03,1.51-1.54,3.45-1.54,5.81,0,2.73.67,4.79,2,6.18,1.33,1.39,3.09,2.09,5.27,2.09,4,0,7.42-2.3,10.27-6.91Z"/><path class="cls-1" d="M178.53,203.2c1.15,1.21,1.97,2.72,2.45,4.54s.73,4.27.73,7.36v24.26c0,2.48.51,4.19,1.55,5.13,1.03.94,2.82,1.41,5.36,1.41v1.91c-5.57-.24-9.21-.36-10.9-.36s-5.09.12-10.18.36v-1.91c2.24,0,3.8-.47,4.68-1.41.88-.94,1.32-2.65,1.32-5.13v-26.26c0-3.39-.48-5.98-1.45-7.77-.97-1.79-2.94-2.68-5.91-2.68-2.48,0-4.69.73-6.63,2.18-1.94,1.45-3.44,3.44-4.5,5.95-1.06,2.51-1.59,5.31-1.59,8.4v20.17c0,2.48.44,4.19,1.32,5.13.88.94,2.44,1.41,4.68,1.41v1.91c-5.09-.24-8.48-.36-10.18-.36s-5.33.12-10.9.36v-1.91c2.54,0,4.33-.47,5.36-1.41,1.03-.94,1.55-2.65,1.55-5.13v-28.44c0-2.79-.52-4.82-1.55-6.09-1.03-1.27-2.82-1.91-5.36-1.91v-1.91c1.94.18,3.82.27,5.63.27,3.82,0,6.96-.42,9.45-1.27v10.72c1.51-3.87,3.62-6.68,6.32-8.4,2.7-1.73,5.74-2.59,9.13-2.59,4.24,0,7.45,1.15,9.63,3.45Z"/><path class="cls-1" d="M235.49,244c1.03,1.27,2.81,1.91,5.36,1.91v1.91c-1.88-.18-3.76-.27-5.63-.27-3.82,0-6.97.42-9.45,1.27v-8.09c-1.09,2.73-2.73,4.8-4.9,6.22-2.18,1.42-4.85,2.13-8,2.13-5.81,0-10.37-2.09-13.67-6.27s-4.92-10.3-4.86-18.35c0-5.27.92-9.77,2.77-13.49,1.85-3.73,4.33-6.53,7.45-8.4,3.12-1.88,6.56-2.82,10.31-2.82,2.3,0,4.41.44,6.32,1.32,1.91.88,3.44,2.23,4.59,4.04v-17.63c0-2.79-.51-4.82-1.55-6.09-1.03-1.27-2.81-1.91-5.36-1.91v-1.91c1.94.18,3.82.27,5.63.27,3.82,0,6.97-.42,9.45-1.27v61.33c0,2.79.51,4.82,1.55,6.09ZM221.86,243.63c1.88-1.82,3.18-4.39,3.91-7.72v-27.08c-1.63-4.66-5.03-7-10.18-7-3.75,0-6.78,1.92-9.08,5.77-2.3,3.85-3.42,9.46-3.36,16.85-.06,7.27.97,12.74,3.09,16.4,2.12,3.67,5.21,5.5,9.27,5.5,2.36,0,4.48-.91,6.36-2.73Z"/><path class="cls-1" d="M284.83,236.91c-1.09,3.33-3.13,6.19-6.13,8.59-3,2.39-6.62,3.59-10.86,3.59s-8.03-.99-11.18-2.95c-3.15-1.97-5.55-4.72-7.22-8.27-1.67-3.54-2.5-7.65-2.5-12.31,0-5.27.85-9.84,2.55-13.72,1.7-3.88,4.09-6.86,7.17-8.95,3.09-2.09,6.69-3.13,10.81-3.13,5.45,0,9.65,1.65,12.58,4.95,2.94,3.3,4.41,8.31,4.41,15.04h-28.44c-.18,1.7-.27,3.63-.27,5.81,0,4,.65,7.48,1.95,10.45,1.3,2.97,3.03,5.25,5.18,6.86,2.15,1.61,4.41,2.41,6.77,2.41,2.91,0,5.48-.7,7.72-2.09,2.24-1.39,4.12-3.73,5.63-7l1.82.73ZM259.75,205.65c-2.06,2.79-3.33,6.91-3.82,12.36h19.81c.12-4.72-.56-8.66-2.05-11.81-1.48-3.15-3.68-4.72-6.58-4.72s-5.3,1.39-7.36,4.18Z"/><path class="cls-1" d="M315.08,185.3c-2.18.12-3.77.36-4.77.73-1,.36-1.68,1.06-2.04,2.09-.36,1.03-.55,2.7-.55,5v45.06c0,2.3.18,3.97.55,5,.36,1.03,1.04,1.71,2.04,2.04,1,.33,2.59.5,4.77.5h6.63c3.75,0,6.61-.53,8.59-1.59,1.97-1.06,3.41-2.77,4.31-5.13s1.58-5.78,2-10.27h2.09c-.18,1.88-.27,4.36-.27,7.45,0,3.45.21,7.33.63,11.63-4.12-.18-11.05-.27-20.81-.27-11.63,0-20.41.09-26.35.27v-1.82c2.18-.12,3.77-.36,4.77-.73,1-.36,1.68-1.06,2.04-2.09.36-1.03.55-2.69.55-5v-45.06c0-2.3-.18-3.97-.55-5-.36-1.03-1.04-1.73-2.04-2.09-1-.36-2.59-.6-4.77-.73v-1.82c2.55.18,6.42.27,11.63.27,4.85,0,8.69-.09,11.54-.27v1.82Z"/><path class="cls-1" d="M383.59,236.91c-1.09,3.33-3.13,6.19-6.13,8.59-3,2.39-6.62,3.59-10.86,3.59s-8.03-.99-11.18-2.95c-3.15-1.97-5.56-4.72-7.22-8.27-1.67-3.54-2.5-7.65-2.5-12.31,0-5.27.85-9.84,2.55-13.72,1.7-3.88,4.09-6.86,7.17-8.95,3.09-2.09,6.69-3.13,10.81-3.13,5.45,0,9.65,1.65,12.58,4.95,2.94,3.3,4.41,8.31,4.41,15.04h-28.44c-.18,1.7-.27,3.63-.27,5.81,0,4,.65,7.48,1.95,10.45,1.3,2.97,3.03,5.25,5.18,6.86,2.15,1.61,4.41,2.41,6.77,2.41,2.91,0,5.48-.7,7.72-2.09,2.24-1.39,4.12-3.73,5.63-7l1.82.73ZM358.51,205.65c-2.06,2.79-3.33,6.91-3.82,12.36h19.81c.12-4.72-.56-8.66-2.05-11.81-1.48-3.15-3.68-4.72-6.58-4.72s-5.3,1.39-7.36,4.18Z"/><path class="cls-1" d="M385.13,263.53c3.69-.18,6.5-1.79,8.4-4.82,1.91-3.03,2.86-7.24,2.86-12.63v-35.16c0-2.79-.51-4.82-1.55-6.09-1.03-1.27-2.81-1.91-5.36-1.91v-1.91c1.88.18,3.76.27,5.63.27,3.82,0,6.97-.42,9.45-1.27v37.34c0,10.06-2.18,17.38-6.54,21.99-1.64,1.7-3.56,3.04-5.77,4.04-2.21,1-4.59,1.5-7.13,1.5v-1.36ZM403.76,180.03c1.15,1.15,1.73,2.51,1.73,4.09s-.58,2.94-1.73,4.09c-1.15,1.15-2.51,1.73-4.09,1.73s-2.94-.58-4.09-1.73-1.73-2.51-1.73-4.09.58-2.94,1.73-4.09,2.51-1.73,4.09-1.73,2.94.58,4.09,1.73Z"/><path class="cls-1" d="M457.82,244.54c.91.73,2,1.18,3.27,1.36v1.91c-3.63-.24-6.09-.36-7.36-.36-1.64,0-5,.12-10.09.36v-1.91c.85,0,1.53-.17,2.04-.5.51-.33.77-.74.77-1.23s-.18-.94-.54-1.36l-10.45-15.26c-1.03-1.51-2.02-2.53-2.95-3.04-.94-.51-2.23-.83-3.86-.95v15.81c0,2.48.44,4.19,1.32,5.13.88.94,2.44,1.41,4.68,1.41v1.91c-5.09-.24-8.45-.36-10.08-.36-1.76,0-5.42.12-10.99.36v-1.91c2.54,0,4.33-.47,5.36-1.41,1.03-.94,1.55-2.65,1.55-5.13v-51.88c0-2.79-.52-4.82-1.55-6.09-1.03-1.27-2.82-1.91-5.36-1.91v-1.91c1.94.18,3.82.27,5.63.27,3.82,0,6.96-.42,9.45-1.27v45.06c1.76-.24,3.23-.65,4.41-1.23,1.18-.58,2.32-1.41,3.41-2.5l6.73-7c1.94-2,2.91-3.66,2.91-5,0-1.03-.62-1.8-1.86-2.32-1.24-.51-2.86-.77-4.86-.77v-1.82c4.24.24,7.66.36,10.26.36,2.85,0,5.48-.12,7.91-.36v1.82c-2.97.24-5.69,1.67-8.18,4.27l-11.08,11.63,16.45,22.44c1.15,1.52,2.18,2.64,3.09,3.36Z"/></svg>